<?xml version="1.0" encoding="UTF-8" standalone="no"?>
<svg xmlns="http://www.w3.org/2000/svg" xmlns:xlink="http://www.w3.org/1999/xlink" contentScriptType="application/ecmascript" contentStyleType="text/css" height="118px" preserveAspectRatio="none" style="width:52px;height:118px;" version="1.1" viewBox="0 0 52 118" width="52px" zoomAndPan="magnify"><defs><filter height="300%" id="f1f0jtvqzdzudn" width="300%" x="-1" y="-1"><feGaussianBlur result="blurOut" stdDeviation="2.0"/><feColorMatrix in="blurOut" result="blurOut2" type="matrix" values="0 0 0 0 0 0 0 0 0 0 0 0 0 0 0 0 0 0 .4 0"/><feOffset dx="4.0" dy="4.0" in="blurOut2" result="blurOut3"/><feBlend in="SourceGraphic" in2="blurOut3" mode="normal"/></filter></defs><g><path d="M27,86.2969 L27.0934,86.2969 L26.8159,90.2969 L27.0859,94.2969 L27.1776,98.2969 L26.6829,102.2969 L27,106.2969 " fill="none" style="stroke: #FFFFFF; stroke-width: 1.0; stroke-dasharray: 5.0,5.0;"/><text fill="#000000" font-family="sans-serif" font-size="14" lengthAdjust="spacingAndGlyphs" textLength="32" x="8" y="82.9951">Arun</text><polygon fill="#FEFECE" filter="url(#f1f0jtvqzdzudn)" points="35.0442,14.9459,33.8715,16.5482,32.4845,18.8951,30.5008,20.4767,28.4163,21.3415,26.7542,21.4166,24.618,20.3349,22.6023,19.6283,21.0724,18.1936,20.2699,16.5511,19.7939,15.2433,19.3277,13.5351,18.5709,12.0651,19.1525,10.6298,19.662,9.0576,21.574,7.8142,22.9192,6.2008,24.5843,5.665,26.5637,5.2037,29.1021,5.4778,30.4924,6.1335,32.1089,6.4307,34.0743,8.4443,34.7595,10.5701,35.0571,12.0206,34.72,14.4108" style="stroke: #A80036; stroke-width: 2.0;"/><path d="M27,21 L27.1868,21 L26.6317,26.4 L27.1718,31.8 L27.3553,37.2 L26.3659,42.6 L27,48 M14,29 L14,28.9309 L19.2,28.6209 L24.4,28.6591 L29.6,28.9394 L34.8,28.3854 L40,29 M27,48 L27.3719,48.3223 L23.9766,50.6331 L21.6672,53.8849 L19.4901,57.2515 L16.5424,59.9501 L14,63 M27,48 L27.0458,48.0397 L29.5785,50.9814 L32.3199,54.1039 L34.9606,57.1392 L37.7934,60.341 L40,63 " fill="none" filter="url(#f1f0jtvqzdzudn)" style="stroke: #A80036; stroke-width: 2.0;"/><!--MD5=[26afcbbf3d8aa44307c79886186b5632]
@startuml
skinparam handwritten true
hide footbox
skinparam sequence {
LifeLineBorderColor white
}
actor Arun
@enduml

PlantUML version 1.2020.07beta8(Unknown compile time)
(GPL source distribution)
Java Runtime: Java(TM) SE Runtime Environment
JVM: Java HotSpot(TM) 64-Bit Server VM
Java Version: 1.7.0_25-b15
Operating System: Linux
Default Encoding: UTF-8
Language: en
Country: US
--></g></svg>