<?xml version="1.0" encoding="UTF-8" standalone="no"?>
<svg xmlns="http://www.w3.org/2000/svg" xmlns:xlink="http://www.w3.org/1999/xlink" contentScriptType="application/ecmascript" contentStyleType="text/css" height="118px" preserveAspectRatio="none" style="width:92px;height:118px;" version="1.1" viewBox="0 0 92 118" width="92px" zoomAndPan="magnify"><defs><filter height="300%" id="f1kv800avuivyh" width="300%" x="-1" y="-1"><feGaussianBlur result="blurOut" stdDeviation="2.0"/><feColorMatrix in="blurOut" result="blurOut2" type="matrix" values="0 0 0 0 0 0 0 0 0 0 0 0 0 0 0 0 0 0 .4 0"/><feOffset dx="4.0" dy="4.0" in="blurOut2" result="blurOut3"/><feBlend in="SourceGraphic" in2="blurOut3" mode="normal"/></filter></defs><g><path d="M47,86.2969 L47.0934,86.2969 L46.8159,90.2969 L47.0859,94.2969 L47.1776,98.2969 L46.6829,102.2969 L47,106.2969 " fill="none" style="stroke: #FFFFFF; stroke-width: 1.0; stroke-dasharray: 5.0,5.0;"/><text fill="#000000" font-family="sans-serif" font-size="14" lengthAdjust="spacingAndGlyphs" textLength="72" x="8" y="82.9951">Arun Babu</text><polygon fill="#FEFECE" filter="url(#f1kv800avuivyh)" points="55.0442,14.9459,53.8715,16.5482,52.4845,18.8951,50.5008,20.4767,48.4163,21.3415,46.7542,21.4166,44.618,20.3349,42.6023,19.6283,41.0724,18.1936,40.2699,16.5511,39.7939,15.2433,39.3277,13.5351,38.5709,12.0651,39.1525,10.6298,39.662,9.0576,41.574,7.8142,42.9192,6.2008,44.5843,5.665,46.5637,5.2037,49.1021,5.4778,50.4924,6.1335,52.1089,6.4307,54.0743,8.4443,54.7595,10.5701,55.0571,12.0206,54.72,14.4108" style="stroke: #A80036; stroke-width: 2.0;"/><path d="M47,21 L47.1868,21 L46.6317,26.4 L47.1718,31.8 L47.3553,37.2 L46.3659,42.6 L47,48 M34,29 L34,28.9309 L39.2,28.6209 L44.4,28.6591 L49.6,28.9394 L54.8,28.3854 L60,29 M47,48 L47.3719,48.3223 L43.9766,50.6331 L41.6672,53.8849 L39.4901,57.2515 L36.5424,59.9501 L34,63 M47,48 L47.0458,48.0397 L49.5785,50.9814 L52.3199,54.1039 L54.9606,57.1392 L57.7934,60.341 L60,63 " fill="none" filter="url(#f1kv800avuivyh)" style="stroke: #A80036; stroke-width: 2.0;"/><!--MD5=[36278ebd082bf58a9d7da76cd470e2fe]
@startuml
skinparam handwritten true
hide footbox
skinparam sequence {
LifeLineBorderColor white
}
actor "Arun Babu"
@enduml

PlantUML version 1.2020.07beta8(Unknown compile time)
(GPL source distribution)
Java Runtime: Java(TM) SE Runtime Environment
JVM: Java HotSpot(TM) 64-Bit Server VM
Java Version: 1.7.0_25-b15
Operating System: Linux
Default Encoding: UTF-8
Language: en
Country: US
--></g></svg>